<svg width="64" height="64" viewBox="0 0 64 64" fill="none" xmlns="http://www.w3.org/2000/svg">
<rect width="64" height="64" rx="15" fill="#FFB91D"/>
<g clip-path="url(#clip0_0_14)">
<path d="M37.0044 40.1178L30.0089 36.1102V28.1008L37.0044 24.0932L44 28.1008V36.1102L37.0044 40.1178ZM31.2437 35.4071L37.0044 38.7057L42.771 35.4071V28.8097L37.0044 25.5111L31.2437 28.8097V35.4071Z" fill="url(#paint0_linear_0_14)"/>
<path d="M36.4372 48.1564L29.7134 52L22.9897 48.1564V40.4576L29.7134 36.6082L36.4372 40.4576V48.1564Z" fill="url(#paint1_linear_0_14)"/>
<path d="M36.5318 23.5483L29.808 27.3918L23.0842 23.5483V15.8494L29.808 12L36.5318 15.8494V23.5483Z" fill="url(#paint2_linear_0_14)"/>
<path d="M29.4417 35.9578L22.7238 39.8072L16 35.9578V28.2648L22.7238 24.4154L29.4417 28.2648V35.9578Z" fill="url(#paint3_linear_0_14)"/>
</g>
<defs>
<linearGradient id="paint0_linear_0_14" x1="37.0044" y1="24.0932" x2="37.0044" y2="40.1178" gradientUnits="userSpaceOnUse">
<stop stop-color="#10059F"/>
<stop offset="1" stop-color="#0068FF"/>
</linearGradient>
<linearGradient id="paint1_linear_0_14" x1="29.7134" y1="36.6082" x2="29.7134" y2="52" gradientUnits="userSpaceOnUse">
<stop stop-color="#10059F"/>
<stop offset="1" stop-color="#0068FF"/>
</linearGradient>
<linearGradient id="paint2_linear_0_14" x1="29.808" y1="12" x2="29.808" y2="27.3918" gradientUnits="userSpaceOnUse">
<stop stop-color="#10059F"/>
<stop offset="1" stop-color="#0068FF"/>
</linearGradient>
<linearGradient id="paint3_linear_0_14" x1="22.7208" y1="24.4154" x2="22.7208" y2="39.8072" gradientUnits="userSpaceOnUse">
<stop stop-color="#10059F"/>
<stop offset="1" stop-color="#0068FF"/>
</linearGradient>
<clipPath id="clip0_0_14">
<rect width="28" height="40" fill="white" transform="translate(16 12)"/>
</clipPath>
</defs>
</svg>
