<svg width="80" height="80" viewBox="0 0 80 80" fill="none" xmlns="http://www.w3.org/2000/svg">
<rect width="80" height="80" rx="15" fill="url(#paint0_linear_0_33)"/>
<g clip-path="url(#clip0_0_33)">
<path d="M26.2339 47.1724C28.5269 43.7143 30.7849 40.3069 33.1011 36.8133C32.3907 36.1091 31.5923 35.3186 30.7939 34.5295C30.7033 34.4395 30.5972 34.3635 30.5118 34.2698C30.1456 33.8657 29.8933 33.4199 30.253 32.9043C30.5946 32.4128 31.12 32.3166 31.6285 32.5737C32.3118 32.9195 32.9652 33.3299 33.6032 33.753C34.0612 34.057 34.474 34.4269 34.8143 34.6941C37.4838 32.0214 40.1132 29.3892 42.8293 26.6696C41.6556 25.7386 40.4031 24.7202 39.1207 23.7385C38.4608 23.2331 37.7426 22.7986 37.0581 22.3223C36.5095 21.941 36.3348 21.4154 36.5664 20.9036C36.7812 20.4286 37.3958 20.1233 37.9963 20.3881C39.364 20.991 40.7292 21.6231 42.0115 22.3793C43.2045 23.0836 44.2889 23.9665 45.4496 24.7911C46.6116 24.0197 47.8086 23.2014 49.0301 22.4173C51.1173 21.0759 53.211 19.7433 55.3189 18.431C56.6323 17.614 58.4102 18.0054 59.1284 19.2278C59.9022 20.5451 59.4363 22.15 58.0608 22.9417C55.1843 24.5986 52.3116 26.2592 49.439 27.9224C49.2565 28.0275 49.0935 28.1643 48.8683 28.3227C49.8932 29.5615 50.8947 30.7674 51.8924 31.9758C52.5678 32.7928 53.2769 33.5871 53.8994 34.4421C54.3044 34.9982 54.4855 35.667 54.3199 36.37C53.9408 37.9863 52.0192 38.6576 50.7149 37.5886C50.2464 37.2047 49.8466 36.7069 49.5205 36.1977C48.3003 34.2913 47.1227 32.3571 45.9012 30.3861C43.0027 32.5167 40.5143 34.9551 38.1037 37.5265C38.7713 38.2523 39.4416 38.9287 40.0485 39.6571C40.8223 40.5856 41.6246 41.5052 42.2664 42.5185C42.9535 43.6028 42.6248 44.8075 41.6531 45.4193C40.7162 46.0083 39.4973 45.8044 38.7442 44.7885C38.2072 44.0639 37.8643 43.2038 37.4114 42.4172C36.9507 41.6166 36.4629 40.8326 35.8676 39.8433C33.5423 42.9999 31.3348 45.9994 29.1001 49.0332C30.5015 49.9984 31.8175 50.8699 33.0933 51.7933C34.1285 52.5432 35.1611 53.3083 36.1044 54.1633C36.4849 54.5078 36.7087 55.0842 36.8524 55.5959C37.0348 56.2457 36.9494 56.9184 36.3607 57.3883C35.6192 57.9799 34.7147 58.0685 33.9254 57.6682C33.1865 57.2933 32.5292 56.703 31.9443 56.1051C30.5183 54.6497 29.1544 53.1347 27.6663 51.5374C27.3506 52.1036 27.1035 52.4862 26.9132 52.8953C25.7357 55.4249 24.5711 57.9596 23.4001 60.4917C23.2487 60.8185 23.1076 61.1517 22.9226 61.4582C22.669 61.8775 22.2795 62.0852 21.7748 61.9687C21.2676 61.8509 20.9868 61.4899 20.9997 61.006C21.0153 60.4208 21.0644 59.8204 21.221 59.2592C22.0906 56.1203 23.2539 53.0841 24.7238 50.1681C24.9878 49.6437 25.0033 49.3321 24.4909 48.9635C23.7637 48.4404 23.0999 47.8311 22.405 47.2649C22.053 46.9786 21.7722 46.6644 21.9819 46.1831C22.1993 45.684 22.6806 45.5396 23.1154 45.6967C23.9953 46.0146 24.8351 46.4428 25.6865 46.8367C25.8936 46.933 26.0773 47.0749 26.2352 47.1724H26.2339Z" fill="white"/>
</g>
<defs>
<linearGradient id="paint0_linear_0_33" x1="40" y1="0" x2="40" y2="80" gradientUnits="userSpaceOnUse">
<stop stop-color="#52AFFF"/>
<stop offset="1" stop-color="#10059F"/>
</linearGradient>
<clipPath id="clip0_0_33">
<rect width="38.5" height="44" fill="white" transform="translate(21 18)"/>
</clipPath>
</defs>
</svg>
