<svg width="80" height="80" viewBox="0 0 80 80" fill="none" xmlns="http://www.w3.org/2000/svg">
<rect width="80" height="80" rx="15" fill="url(#paint0_linear_0_49)"/>
<g clip-path="url(#clip0_0_49)">
<path d="M54.1414 34.3628C54.3831 31.9928 54.4119 29.4918 54.2299 26.8415C54.2089 26.5378 54.0126 26.274 53.7266 26.1678L39.184 20.761C39.0098 20.6962 38.8185 20.6962 38.6442 20.761L24.131 26.1568C23.8423 26.2641 23.6448 26.5329 23.6271 26.8404C23.2433 33.6808 24.1531 39.4992 26.3914 44.5737C28.7934 50.0193 32.7446 54.6751 38.4352 58.7518C38.7073 58.947 39.0751 58.9448 39.345 58.7468C40.0397 58.2369 40.7089 57.7203 41.3527 57.196C41.7785 56.8492 42.4201 57.045 42.581 57.5704L42.8941 58.5936C42.987 58.8972 42.8852 59.2269 42.6375 59.4254C41.6038 60.2539 40.5076 61.067 39.3461 61.8639C39.0845 62.0431 38.7405 62.0454 38.4767 61.8695C24.3544 52.4611 19.9375 40.2049 21.2074 25.0075C21.2323 24.7077 21.4275 24.4494 21.7096 24.3443L38.6442 18.0487C38.8185 17.984 39.0098 17.984 39.184 18.0487L56.1264 24.3471C56.4046 24.4505 56.5988 24.7044 56.6275 24.9997C56.992 28.7236 56.987 32.276 56.5523 35.663C56.4649 36.345 55.5966 36.5812 55.1735 36.0391L54.3013 34.9208C54.178 34.7626 54.1215 34.5624 54.142 34.3628H54.1414Z" fill="white"/>
<path d="M52.4861 49.7853V54.7752C52.4861 55.3155 52.0481 55.7536 51.5077 55.7536H45.6373C45.097 55.7536 44.659 55.3155 44.659 54.7752V49.7853H39.6691C39.1287 49.7853 38.6907 49.3473 38.6907 48.8069V42.9366C38.6907 42.3962 39.1287 41.9582 39.6691 41.9582H44.659V36.9683C44.659 36.428 45.097 35.9899 45.6373 35.9899H51.5077C52.0481 35.9899 52.4861 36.428 52.4861 36.9683V41.9582H57.4759C58.0163 41.9582 58.4543 42.3962 58.4543 42.9366V48.8069C58.4543 49.3473 58.0163 49.7853 57.4759 49.7853H52.4861Z" fill="white"/>
</g>
<defs>
<linearGradient id="paint0_linear_0_49" x1="40" y1="0" x2="40" y2="80" gradientUnits="userSpaceOnUse">
<stop stop-color="#52AFFF"/>
<stop offset="1" stop-color="#10059F"/>
</linearGradient>
<clipPath id="clip0_0_49">
<rect width="37.4543" height="44" fill="white" transform="translate(21 18)"/>
</clipPath>
</defs>
</svg>
