<svg width="64" height="64" viewBox="0 0 64 64" fill="none" xmlns="http://www.w3.org/2000/svg">
<rect width="64" height="64" rx="15" fill="#FFB91D"/>
<path d="M45.4727 19.0034L41.1362 21.8704L47.6635 31.7434L52 28.8764L45.4727 19.0034Z" fill="url(#paint0_linear_0_29)"/>
<path d="M12 28.873L16.3365 31.74L22.8638 21.867L18.5273 19L12 28.873Z" fill="url(#paint1_linear_0_29)"/>
<path d="M41.0437 22.7101L33.0189 24.3976L29.534 25.9227C28.8446 26.2246 28.2726 26.7237 27.8813 27.3669L26.3801 29.8303C26.1311 30.2393 26.2211 30.776 26.5863 31.0512C27.34 31.6203 28.8577 30.9167 30.8597 29.0703L30.9115 29.0225L33.2405 28.2613L36.6997 28.712L43.9116 34.356L44.2876 33.9299L46.7299 31.3993L41.0443 22.7101H41.0437Z" fill="url(#paint2_linear_0_29)"/>
<path d="M29.8422 38.6539C29.2206 38.1411 28.3006 38.2289 27.7878 38.8504L25.8206 41.2341C25.3079 41.8556 25.3956 42.7757 26.0172 43.2884C26.6387 43.8017 27.5588 43.7134 28.0715 43.0919L30.0382 40.7082C30.5509 40.0867 30.4632 39.1666 29.8416 38.6539H29.8422Z" fill="url(#paint3_linear_0_29)"/>
<path d="M28.0191 36.0349C27.9314 35.8162 27.789 35.6151 27.5941 35.4544C26.9726 34.9417 26.0525 35.0294 25.5398 35.651L22.7778 38.998C22.3904 39.4674 22.346 40.1066 22.6155 40.6125C22.7032 40.8313 22.8456 41.0324 23.0405 41.193C23.662 41.7058 24.5821 41.618 25.0948 40.9965L27.8568 37.6495C28.2442 37.18 28.2886 36.5408 28.0191 36.0349Z" fill="url(#paint4_linear_0_29)"/>
<path d="M22.6235 38.0705L23.7845 36.6633C24.2972 36.0418 24.2095 35.1217 23.588 34.609C22.9664 34.0957 22.0463 34.184 21.5336 34.8055L20.3726 36.2127C19.8598 36.8342 19.9476 37.7543 20.5691 38.267C21.1906 38.7798 22.1107 38.692 22.6235 38.0705Z" fill="url(#paint5_linear_0_29)"/>
<path d="M43.4997 34.8591L36.4394 29.3335L33.3026 28.925L31.2482 29.5967C28.95 31.7029 27.25 32.3672 26.1949 31.5707C25.5671 31.0962 25.4048 30.1841 25.8258 29.493L27.3269 27.0296C27.5127 26.7243 27.7354 26.4462 27.9878 26.1984L30.9645 24.5884L22.9624 22.7107L17.2882 31.2939L20.7565 34.8551L21.0955 34.4443C21.4818 33.976 22.0526 33.7071 22.6605 33.7071C23.1299 33.7071 23.588 33.8718 23.9503 34.1709C24.3679 34.5155 24.6265 35.0026 24.6784 35.5416C24.6864 35.6259 24.6886 35.7096 24.6864 35.7922L25.1017 35.2892C25.4885 34.8209 26.0588 34.552 26.6666 34.552C27.1361 34.552 27.5941 34.7166 27.9565 35.0157C28.2094 35.2243 28.4094 35.4932 28.5358 35.7945C28.868 36.4417 28.827 37.204 28.443 37.8067C28.5957 37.7703 28.754 37.7509 28.9147 37.7509C29.3841 37.7509 29.8422 37.9155 30.2045 38.2146C30.9303 38.8134 31.132 39.8161 30.7531 40.6325C30.9309 40.5823 31.1172 40.5561 31.3069 40.5561C31.7763 40.5561 32.2344 40.7208 32.5967 41.0199C33.0143 41.3645 33.2729 41.8516 33.3248 42.3906C33.3766 42.9295 33.2148 43.4571 32.8702 43.8746L32.6793 44.1059L33.4484 44.7007L33.9059 45.0243C34.4625 45.418 35.2213 45.3536 35.7039 44.8716L35.8919 44.6836C36.5054 44.0701 36.4189 43.0526 35.7107 42.5512L33.3971 40.915C33.2587 40.817 33.2063 40.6285 33.2906 40.4815C33.3875 40.3123 33.6057 40.2673 33.7606 40.3767L36.5687 42.3627C37.1253 42.7563 37.8841 42.6914 38.3661 42.21L38.3912 42.1849C39.0064 41.5696 38.917 40.5476 38.2043 40.0485L34.716 37.6073C34.5508 37.4917 34.5263 37.2501 34.6807 37.1031C34.7929 36.996 34.969 36.9909 35.096 37.0798L39.0765 39.8651C39.6326 40.2542 40.388 40.1881 40.8682 39.7078L41.1434 39.4327C41.7655 38.8105 41.6664 37.776 40.9372 37.2837L36.3813 34.2056C36.2405 34.1105 36.1847 33.923 36.2662 33.7738C36.3596 33.6029 36.5761 33.5533 36.7339 33.6593L41.8544 37.1191C42.4099 37.4945 43.1533 37.4233 43.6273 36.9493C44.2215 36.3551 44.1617 35.3752 43.5003 34.8579L43.4997 34.8591Z" fill="url(#paint6_linear_0_29)"/>
<path d="M32.2349 41.4591C31.6134 40.9464 30.6933 41.0341 30.1806 41.6556L29.04 43.0378C28.5273 43.6593 28.615 44.5794 29.2366 45.0921C29.8581 45.6048 30.7782 45.5171 31.2909 44.8956L32.4315 43.5135C32.9442 42.8919 32.8565 41.9718 32.2349 41.4591Z" fill="url(#paint7_linear_0_29)"/>
<defs>
<linearGradient id="paint0_linear_0_29" x1="32" y1="19" x2="32" y2="45.4259" gradientUnits="userSpaceOnUse">
<stop stop-color="#10059F"/>
<stop offset="1" stop-color="#0038FF"/>
</linearGradient>
<linearGradient id="paint1_linear_0_29" x1="32" y1="19" x2="32" y2="45.4259" gradientUnits="userSpaceOnUse">
<stop stop-color="#10059F"/>
<stop offset="1" stop-color="#0038FF"/>
</linearGradient>
<linearGradient id="paint2_linear_0_29" x1="32" y1="19" x2="32" y2="45.4259" gradientUnits="userSpaceOnUse">
<stop stop-color="#10059F"/>
<stop offset="1" stop-color="#0038FF"/>
</linearGradient>
<linearGradient id="paint3_linear_0_29" x1="32" y1="19" x2="32" y2="45.4259" gradientUnits="userSpaceOnUse">
<stop stop-color="#10059F"/>
<stop offset="1" stop-color="#0038FF"/>
</linearGradient>
<linearGradient id="paint4_linear_0_29" x1="32" y1="19" x2="32" y2="45.4259" gradientUnits="userSpaceOnUse">
<stop stop-color="#10059F"/>
<stop offset="1" stop-color="#0038FF"/>
</linearGradient>
<linearGradient id="paint5_linear_0_29" x1="32" y1="19" x2="32" y2="45.4259" gradientUnits="userSpaceOnUse">
<stop stop-color="#10059F"/>
<stop offset="1" stop-color="#0038FF"/>
</linearGradient>
<linearGradient id="paint6_linear_0_29" x1="32" y1="19" x2="32" y2="45.4259" gradientUnits="userSpaceOnUse">
<stop stop-color="#10059F"/>
<stop offset="1" stop-color="#0038FF"/>
</linearGradient>
<linearGradient id="paint7_linear_0_29" x1="32" y1="19" x2="32" y2="45.4259" gradientUnits="userSpaceOnUse">
<stop stop-color="#10059F"/>
<stop offset="1" stop-color="#0038FF"/>
</linearGradient>
</defs>
</svg>
