<svg width="80" height="80" viewBox="0 0 80 80" fill="none" xmlns="http://www.w3.org/2000/svg">
<rect width="80" height="80" rx="15" fill="url(#paint0_linear_0_37)"/>
<g clip-path="url(#clip0_0_37)">
<path d="M39.8254 18C30.5487 18 23 25.5487 23 34.8254C23 40.1879 27.4642 47.6908 30.1271 51.6875C31.2729 53.4108 37.135 62 39.8254 62C42.5158 62 48.3779 53.4108 49.5238 51.6875C52.1867 47.6908 56.6508 40.1879 56.6508 34.8254C56.6508 25.5487 49.1067 18 39.8254 18ZM39.8254 49.5288C35.8975 49.5288 32.2033 47.9979 29.4258 45.2204C26.6483 42.4429 25.1175 38.7488 25.1175 34.8208C25.1175 30.8929 26.6483 27.1988 29.4258 24.4213C29.49 24.3571 29.5588 24.2929 29.6275 24.2333C29.5771 24.3938 29.5175 24.5496 29.4258 24.6871C29.2058 25.0125 28.8438 25.1454 28.6146 25.4479C28.4083 25.7275 28.2388 26.1492 28.1608 26.4608C28.0783 26.8 28.1288 27.2125 28.0096 27.5471C27.8583 27.9779 27.5833 28.23 27.6337 28.7296C28.2296 28.9083 27.9729 27.845 28.4771 27.79C28.6375 28.1842 28.5321 28.9221 28.4863 29.3529C28.4221 29.9488 28.3075 30.0954 28.6604 30.6042C28.94 31.0075 29.0363 31.2779 29.5771 31.3421C30.0767 31.4017 30.2829 31.6263 30.4892 32.1075C30.8742 32.19 31.1079 32.2542 31.1538 32.6804C31.3188 32.7721 31.635 33.0746 31.8092 33.1204C32.0658 33.1892 32.4921 32.8225 32.7304 33.1021C33.1338 33.5696 32.2217 34.7888 32.0613 35.2104C31.8229 35.8292 31.7863 36.7321 32.3729 37.1767C32.6708 37.4058 32.9917 37.5113 33.0879 37.9238C33.1796 38.3042 33.1063 38.6204 33.2758 38.9825C33.5371 39.5462 34.1421 39.7296 34.5729 40.1604C35.1367 40.7242 35.0954 41.4575 35.0954 42.255C35.0954 43.0525 35.4117 43.7263 35.5217 44.4917C35.6363 45.28 35.87 46.0133 36.035 46.7788C36.1588 47.3517 36.6538 48.2225 37.3733 48.1033C37.4238 47.8329 37.1396 47.6175 37.1075 47.3471C37.0754 47.1042 37.1442 46.8475 37.0938 46.5863C36.9975 46.0683 37.0021 45.7613 37.3458 45.3121C37.4696 45.1517 37.6346 45.0188 37.7583 44.8629C38.0013 44.5513 37.8133 44.6429 37.8042 44.3038C37.7904 43.8821 37.9188 44.0883 38.1754 43.9554C38.3083 43.8867 38.455 43.6804 38.5558 43.575C38.7804 43.3413 39.1242 43.0663 39.2938 42.7913C39.4863 42.4796 39.4633 42.0487 39.6604 41.7325C39.8896 41.3658 40.2104 41.3658 40.5313 41.1275C40.9438 40.8158 40.7742 40.4904 40.8475 40.0688C40.9758 39.3583 41.2967 38.5746 41.7413 38.0108C42.305 37.3004 42.5479 36.6954 41.8604 36.0079C41.5213 35.6688 41.3471 35.7604 40.8933 35.6413C40.5496 35.5496 40.2425 35.3021 39.8942 35.2563C39.6833 35.2288 39.5596 35.3067 39.3717 35.2563C39.1929 35.2104 39.2158 35.1004 39.0279 35.105C38.7483 35.105 38.3588 35.6917 38.1204 35.3204C37.9875 35.1142 38.3863 34.5367 38.3725 34.2617C38.3496 33.9179 38.2213 33.3633 37.8867 33.1754C37.7583 33.1067 37.4788 33.0929 37.3229 33.0333C37.1396 32.9646 36.9608 32.85 36.7958 32.7446C36.585 32.6071 36.1725 32.3688 36.0763 32.1258C35.815 32.1167 35.6363 31.97 35.3704 31.9746C35.1321 31.9746 34.9717 32.0892 34.715 32.0571C34.4904 32.0296 34.2429 31.8508 34 31.8875C33.835 31.9104 33.5967 32.1213 33.4546 32.1992C33.0833 32.41 32.6846 32.5613 32.2767 32.6392C31.6396 32.7583 31.525 32.5154 31.5617 31.9242L31.4654 31.7317C31.7037 31.0717 31.2775 31.0258 30.8054 30.8654C30.7413 30.3979 31.3188 30.0633 31.0758 29.55C30.59 29.5271 30.0583 30.8975 29.6458 30.3017C29.3754 29.9075 29.7879 28.8121 30.0263 28.4821C30.2692 28.1475 31.1446 27.5425 31.5571 27.4921C31.8779 27.4508 32.1621 27.5929 32.2858 27.8771C32.4188 28.1842 32.2446 28.4729 32.2858 28.8213C32.6983 28.725 32.5929 28.2025 32.5746 27.9229C32.5425 27.4554 32.79 27.4875 33.0283 27.1529C33.2437 26.8458 33.2804 26.4929 33.5508 26.195C33.7617 25.9612 34.0092 25.7183 34.2429 25.5075C34.5088 25.2646 34.8067 25.2875 35.0771 25.1088C35.4896 24.8338 34.9442 24.3296 35.5537 24.3663C35.7692 24.38 35.6638 24.5129 35.9479 24.4487C36.0717 24.4212 36.2963 24.3067 36.42 24.2562C37.0021 24.0225 36.5896 23.9583 36.3238 23.6513C35.9846 23.2617 36.4658 23.3304 36.8142 23.2708C37.0708 23.2296 37.0158 23.1425 37.2404 23.2938C37.4375 23.4267 37.3229 23.6054 37.6117 23.5917C38.1617 23.5733 37.7813 23.0233 37.6575 22.84C37.4467 22.5283 37.3963 22.3083 36.9517 22.2992C36.9929 22.1571 36.9975 21.9738 36.9379 21.8363C36.5667 21.8867 36.5025 21.6163 36.2183 21.5063C35.7417 21.3275 35.8196 21.7171 35.6271 21.9829C35.4254 22.2579 35.045 22.2075 34.8983 22.5421C34.7471 22.8904 34.8892 23.1563 34.3346 23.06C34.4125 22.8492 34.385 22.5833 34.3713 22.3588C34.2108 22.3358 34.0596 22.2992 33.9083 22.2488C33.9083 21.6896 34.5271 21.6438 34.9488 21.5888C35.4208 21.5292 35.5721 21.0525 35.9938 20.97C36.3879 20.8967 36.6675 21.5292 37.1488 21.1625C37.4238 20.9517 37.2954 20.8279 37.1946 20.6263C37.1671 20.5713 37.0296 20.4521 36.9929 20.4017C36.9929 20.3971 36.9883 20.3925 36.9838 20.3833C37.3596 20.31 37.74 20.255 38.1204 20.2092C38.1938 20.42 38.3496 20.6721 38.4321 20.8142C38.4962 20.9196 38.6108 20.9929 38.6612 21.1075C38.7162 21.2404 38.5833 21.4054 38.7529 21.4925C39.0096 21.63 39.7658 20.7317 39.9446 20.585C40.1738 20.4017 40.3158 20.2962 40.2608 20.1175C41.4708 20.1542 42.6579 20.3375 43.7946 20.6538C43.8862 20.7683 43.9779 20.8829 44.0696 21.0158C44.2713 21.2954 44.395 21.5475 44.7571 21.6713C44.9679 21.7446 45.6371 21.7308 45.3575 22.2075C45.1008 22.6475 44.8167 22.07 44.6883 21.9325C44.5096 21.74 43.9779 21.5246 43.9963 21.9692C44.0192 22.6246 45.5042 22.5192 45.1833 23.2433C45.3621 23.3487 45.7104 23.5229 45.6554 23.7796C45.5867 24.1004 45.1696 23.8942 45.1788 24.3021C45.1925 24.8796 45.8204 25.3563 46.4071 25.15C47.0304 24.93 46.5629 24.0592 47.2779 23.9721C47.5621 23.9354 47.7271 24.0179 47.9792 24.2196C48.1854 24.3846 48.3183 24.7513 48.6025 24.7238C48.63 24.5496 48.4971 24.4213 48.4788 24.2608C48.6988 24.3158 49.1388 24.5908 49.2671 24.7833C49.4596 25.0721 49.4367 25.4892 49.9042 25.1179C49.8354 25.0583 49.7988 24.9346 49.7621 24.8888C50.3579 24.8888 50.775 25.1363 51.0317 25.6542C51.6046 26.8092 50.1975 25.8925 50.1287 26.4929C49.785 26.3829 49.6292 26.1033 49.3267 25.9383C49.1846 25.8604 48.9188 25.9017 48.8133 25.8238C48.6621 25.7138 48.6987 25.5121 48.5658 25.4067C48.0479 24.9804 46.8608 25.6679 46.3842 25.9429C46.2558 26.0163 46.1183 26.0254 46.0267 26.1675C45.8754 26.4058 46.0863 26.47 46.0404 26.6946C45.9717 27.0154 45.5546 27.1621 45.4308 27.4187C45.1283 28.0329 45.7425 28.9175 45.66 29.6004C45.6142 29.9808 45.2063 30.3933 45.3621 30.7096C45.4308 30.8471 45.6646 30.9617 45.7563 31.1221C45.8388 31.2687 45.8754 31.4613 45.9808 31.6125C46.3292 32.1029 46.8333 32.6529 47.2458 33.1113C47.4796 33.3725 47.7958 33.4458 48.1488 33.3725C48.4375 33.3129 48.8775 33.2167 49.1479 33.0883C49.5054 32.9142 49.5558 32.6758 49.9317 32.8362C50.2342 32.9692 50.4954 33.3496 50.8483 33.0333C51.1371 33.3175 50.8163 33.8079 50.7521 34.1242C50.6696 34.5275 50.83 34.8804 51.0775 35.2196C51.3754 35.6321 51.4442 35.7054 51.3846 36.2554C51.3388 36.6863 51.2288 37.0758 51.1371 37.5021C51.05 37.91 50.7888 38.2171 50.8025 38.6479C50.8163 39.0467 50.9858 39.3629 50.9354 39.7892C50.8896 40.165 50.8667 40.6142 50.7704 40.9808C50.6696 41.3567 50.4038 41.6912 50.2938 42.0762C50.1883 42.4429 50.2158 42.9196 50.4725 43.2175C50.7383 43.5292 51.0042 43.3504 51.3158 43.1121C51.9346 42.6446 52.2142 41.8471 52.6267 41.2146C53.0438 40.5683 53.47 39.9771 53.745 39.3079C53.8046 39.1658 53.8779 39.0238 53.9467 38.8863C53.2683 41.2558 51.9988 43.4283 50.2113 45.2204C47.4338 47.9979 43.7396 49.5288 39.8117 49.5288H39.8254Z" fill="white"/>
</g>
<defs>
<linearGradient id="paint0_linear_0_37" x1="40" y1="0" x2="40" y2="80" gradientUnits="userSpaceOnUse">
<stop stop-color="#52AFFF"/>
<stop offset="1" stop-color="#10059F"/>
</linearGradient>
<clipPath id="clip0_0_37">
<rect width="33.6508" height="44" fill="white" transform="translate(23 18)"/>
</clipPath>
</defs>
</svg>
