<svg width="80" height="80" viewBox="0 0 80 80" fill="none" xmlns="http://www.w3.org/2000/svg">
<rect width="80" height="80" rx="15" fill="url(#paint0_linear_0_53)"/>
<path d="M38.2529 20.0243L36.1387 18.4902H38.7483L39.5602 16L40.3658 18.4902H42.9761L40.8612 20.0237L41.6675 22.5075L39.5615 20.9791L37.4397 22.5094L38.2529 20.0243Z" fill="white"/>
<path d="M38.2529 61.5111L36.1393 59.9795H38.7483L39.5602 57.4918L40.3658 59.9795H42.9754L40.8612 61.5111L41.6668 63.9987L39.5615 62.4627L37.4397 64L38.2529 61.5111Z" fill="white"/>
<path d="M29.6103 60.0357L27.498 61.5686L28.3106 59.086L26.1888 57.5493H28.8053L29.6103 55.0623L30.4159 57.5493H33.0331L30.9107 59.086L31.7232 61.5686L29.6103 60.0357Z" fill="white"/>
<path d="M22.0861 52.7573L19.9738 54.2927L20.7851 51.812L18.6766 50.2665H21.2899L22.088 47.7877L22.9006 50.2665H25.5108L23.3947 51.8114L24.2003 54.2946L22.0861 52.7573Z" fill="white"/>
<path d="M18.1129 41.1304L16 39.5969H18.6083L19.4215 37.1073L20.2272 39.5969H22.8443L20.7314 41.1304L21.537 43.6199L19.4228 42.0839L17.3073 43.6199L18.1129 41.1304Z" fill="white"/>
<path d="M21.8485 31.4124L19.733 32.9453L20.5393 30.4589L18.4327 28.9235H21.034L21.8485 26.4314L22.663 28.9235H25.2713L23.1571 30.4589L23.964 32.9453L21.8485 31.4124Z" fill="white"/>
<path d="M27.8177 23.1761L25.7048 21.6444H28.3226L29.1269 19.158L29.9325 21.6444H32.5472L30.4267 23.1761L31.2329 25.6681L29.1269 24.1333L27.0115 25.67L27.8177 23.1761Z" fill="white"/>
<path d="M49.5032 24.1333L47.3909 25.6681L48.2047 23.1761L46.0836 21.6444H48.6995L49.5032 19.1587L50.3076 21.6444H52.9241L50.8042 23.1761L51.618 25.6681L49.5032 24.1333Z" fill="white"/>
<path d="M55.9646 30.4589L53.8441 28.9235H56.4613L57.2745 26.4339L58.0801 28.9235H60.6897L58.5761 30.4589L59.3805 32.944L57.2757 31.4124L55.1527 32.9459L55.9646 30.4589Z" fill="white"/>
<path d="M58.6298 40.647L56.515 39.1116H59.1239L59.9365 36.624L60.7434 39.1116H63.3593L61.2388 40.647L62.0507 43.1283L59.9378 41.591L57.8242 43.1296L58.6298 40.647Z" fill="white"/>
<path d="M55.9646 51.0765L53.8454 49.5449H56.4613L57.2745 47.0617L58.0801 49.5449H60.6884L58.5761 51.0765L59.3805 53.5667L57.2757 52.0319L55.152 53.5686L55.9646 51.0765Z" fill="white"/>
<path d="M49.7401 59.5511L47.636 61.0852L48.4398 58.6033L46.3249 57.0622H48.9358L49.742 54.5777L50.5552 57.0622H53.168L51.0588 58.6033L51.8651 61.0884L49.7401 59.5511Z" fill="white"/>
<path d="M30.5827 36.1759L30.1928 33.5069C30.1177 32.9799 30.0766 32.6444 30.0488 32.3708H30.0349C29.9869 32.5901 29.9117 32.8769 29.8087 33.2055L28.8167 36.1759H28.1456L27.2079 33.4039C27.0917 33.0551 26.9685 32.6716 26.9135 32.3702H26.9065C26.8794 32.7468 26.8313 33.1164 26.7764 33.5682L26.4617 36.1759H25.8185L26.4958 31.5564H27.2692L28.241 34.4648C28.3573 34.8003 28.4464 35.108 28.5014 35.3816H28.5153C28.5835 35.06 28.6524 34.8338 28.7617 34.5059L29.7676 31.5564H30.548L31.2462 36.1759H30.5827Z" fill="white"/>
<path d="M34.9836 36.1759L34.6007 35.0948H32.6363L32.2533 36.1759H31.6101L33.294 31.5564H33.9922L35.6894 36.1759H34.9836ZM33.8267 32.9458C33.7376 32.7133 33.6763 32.494 33.6213 32.2546H33.6074C33.5525 32.4801 33.4842 32.7196 33.3951 32.9528L32.7993 34.5956H34.4282L33.8267 32.9458Z" fill="white"/>
<path d="M37.5022 36.2031C37.0365 36.2031 36.6739 36.1759 36.332 36.1759V31.5633C36.6878 31.5564 37.2078 31.5361 37.7145 31.5361C39.1931 31.5361 40.0758 32.2274 40.0758 33.8153C40.0758 35.4031 39.0149 36.2031 37.5022 36.2031ZM37.6526 32.0486C37.4131 32.0486 37.1326 32.0625 36.9613 32.0694V35.6281C37.1326 35.6552 37.386 35.6691 37.5705 35.6691C38.6516 35.6691 39.4117 35.108 39.4117 33.8557C39.4117 32.6785 38.8506 32.0486 37.6526 32.0486Z" fill="white"/>
<path d="M40.9724 36.1759V31.5564H43.3476V32.0764H41.6024V33.541H43.2654V34.0472H41.6024V35.6489H43.3476V36.1759H40.9724Z" fill="white"/>
<path d="M46.6516 36.1759V31.5564H47.2809V36.1759H46.6516Z" fill="white"/>
<path d="M51.4291 36.1759L49.67 33.3148C49.4577 32.9793 49.2934 32.6646 49.143 32.3569C49.1702 32.8498 49.191 33.9587 49.191 34.691V36.1759H48.575V31.5564H49.4033L51.1214 34.3283C51.3267 34.6639 51.5182 35.0126 51.6894 35.3412C51.6622 34.7732 51.6414 33.6371 51.6414 32.8706V31.5564H52.2505V36.1759H51.4291Z" fill="white"/>
<path d="M30.0507 48.4643C26.6171 48.4643 25.7148 46.6446 25.7148 44.3819V37.5616H28.6581V44.2391C28.6581 45.3783 29.0062 45.9957 30.2244 45.9957C31.4427 45.9957 31.7908 45.4895 31.7908 44.1601V37.5616H34.7024V44.0021C34.7024 47.1039 32.9149 48.4643 30.0507 48.4643Z" fill="white"/>
<path d="M38.4374 48.4485C37.7095 48.4485 36.95 48.3854 36.2379 48.2268L36.3958 45.5369C36.9816 45.7429 37.8674 45.9167 38.6743 45.9167C39.3864 45.9167 39.8452 45.6159 39.8452 45.1256C39.8452 43.575 35.8575 44.4925 35.8575 40.8371C35.8575 38.7166 37.4877 37.3556 40.3039 37.3556C40.8416 37.3556 41.5859 37.4188 42.25 37.5293L42.0921 40.077C41.4747 39.9026 40.8422 39.792 40.1933 39.792C39.3706 39.792 39.0225 40.1244 39.0225 40.5357C39.0225 41.881 43.0102 41.3584 43.0102 44.6978C43.0102 46.8341 41.2858 48.4485 38.4374 48.4485Z" fill="white"/>
<path d="M50.432 48.2432L49.8785 46.5024H46.5871L46.0488 48.2432H43.1372L46.6187 37.5622H49.9891L53.6444 48.2432H50.432ZM48.707 42.8471C48.5175 42.2298 48.3273 41.6605 48.2167 40.9957H48.1851C48.0903 41.6131 47.8843 42.3252 47.6632 43.0215L47.2992 44.1923H49.1348L48.707 42.8471Z" fill="white"/>
<defs>
<linearGradient id="paint0_linear_0_53" x1="40" y1="0" x2="40" y2="80" gradientUnits="userSpaceOnUse">
<stop stop-color="#52AFFF"/>
<stop offset="1" stop-color="#10059F"/>
</linearGradient>
</defs>
</svg>
