<svg width="80" height="80" viewBox="0 0 80 80" fill="none" xmlns="http://www.w3.org/2000/svg">
<rect width="80" height="80" rx="15" fill="url(#paint0_linear_0_44)"/>
<g clip-path="url(#clip0_0_44)">
<path d="M47.912 48.9295L40.2811 44.5212V35.7109L47.912 31.3025L55.5428 35.7109V44.5212L47.912 48.9295ZM41.6281 43.7478L47.912 47.3763L54.2023 43.7478V36.4907L47.912 32.8622L41.6281 36.4907V43.7478Z" fill="white"/>
<path d="M47.2932 57.7721L39.9588 62L32.6244 57.7721V49.3034L39.9588 45.069L47.2932 49.3034V57.7721Z" fill="white"/>
<path d="M47.3964 30.7031L40.062 34.931L32.7276 30.7031V22.2344L40.062 18L47.3964 22.2344V30.7031Z" fill="white"/>
<path d="M39.6624 44.3536L32.3344 48.588L25 44.3536V35.8913L32.3344 31.657L39.6624 35.8913V44.3536Z" fill="white"/>
</g>
<defs>
<linearGradient id="paint0_linear_0_44" x1="40" y1="0" x2="40" y2="80" gradientUnits="userSpaceOnUse">
<stop stop-color="#52AFFF"/>
<stop offset="1" stop-color="#10059F"/>
</linearGradient>
<clipPath id="clip0_0_44">
<rect width="30.5428" height="44" fill="white" transform="translate(25 18)"/>
</clipPath>
</defs>
</svg>
