<svg width="64" height="64" viewBox="0 0 64 64" fill="none" xmlns="http://www.w3.org/2000/svg">
<rect width="64" height="64" rx="15" fill="#FFB91D"/>
<g clip-path="url(#clip0_0_23)">
<path fill-rule="evenodd" clip-rule="evenodd" d="M16.4595 35.2437H21.5456V33.3196H14.6192H14.5459V40.1702H16.403V35.272L16.4595 35.2437Z" fill="url(#paint0_linear_0_23)"/>
<path fill-rule="evenodd" clip-rule="evenodd" d="M14.5459 26.5938H28.4493L28.4776 26.5825C31.4807 26.6108 33.9023 29.0571 33.9023 32.0709C33.9023 35.0847 31.4694 37.5367 28.4606 37.5594H28.4155L25.0116 37.5537V30.6179H26.9309V35.6637L27.0889 35.658H28.4889C30.4307 35.6183 31.9944 34.0291 31.9944 32.0709C31.9944 30.1128 30.4138 28.5065 28.455 28.4838H16.3918V30.6179H21.5174L21.523 32.542H14.5289L14.5459 26.5938Z" fill="url(#paint1_linear_0_23)"/>
<path fill-rule="evenodd" clip-rule="evenodd" d="M42.398 24.0681L50.7976 38.3086L52 36.3107L44.5543 24.0681H42.398Z" fill="url(#paint2_linear_0_23)"/>
<path fill-rule="evenodd" clip-rule="evenodd" d="M33.7782 40.1702L42.3923 25.7368L49.4937 37.5594H39.7053V35.7147H46.0615L42.3923 29.5622L36.3748 40.1702H33.7782Z" fill="url(#paint3_linear_0_23)"/>
<path fill-rule="evenodd" clip-rule="evenodd" d="M50.7976 38.3086H39.7053V40.1702L49.7082 40.1645L49.7251 40.1191L50.7976 38.3086Z" fill="url(#paint4_linear_0_23)"/>
<path fill-rule="evenodd" clip-rule="evenodd" d="M22.2964 38.2461L22.302 30.6179H24.2213V38.2632H28.4606C31.8589 38.2405 34.608 35.4707 34.608 32.0596C34.608 28.6484 31.8645 25.8843 28.4719 25.856H13.8515V40.1702H12V24H28.4945C32.4008 24.0341 35.641 26.7641 36.341 30.4817L40.2416 24.0681H42.398L35.7144 35.3288L35.0652 36.4299C33.6257 38.5469 31.2379 40.1248 28.4945 40.1532H22.2964V38.2461Z" fill="url(#paint5_linear_0_23)"/>
</g>
<defs>
<linearGradient id="paint0_linear_0_23" x1="18.0457" y1="33.3196" x2="18.0457" y2="40.1702" gradientUnits="userSpaceOnUse">
<stop stop-color="#10059F"/>
<stop offset="1" stop-color="#0038FF"/>
</linearGradient>
<linearGradient id="paint1_linear_0_23" x1="24.2156" y1="26.5825" x2="24.2156" y2="37.5594" gradientUnits="userSpaceOnUse">
<stop stop-color="#10059F"/>
<stop offset="1" stop-color="#0038FF"/>
</linearGradient>
<linearGradient id="paint2_linear_0_23" x1="47.199" y1="24.0681" x2="47.199" y2="38.3086" gradientUnits="userSpaceOnUse">
<stop stop-color="#10059F"/>
<stop offset="1" stop-color="#0038FF"/>
</linearGradient>
<linearGradient id="paint3_linear_0_23" x1="41.6359" y1="25.7368" x2="41.6359" y2="40.1702" gradientUnits="userSpaceOnUse">
<stop stop-color="#10059F"/>
<stop offset="1" stop-color="#0038FF"/>
</linearGradient>
<linearGradient id="paint4_linear_0_23" x1="45.2515" y1="38.3086" x2="45.2515" y2="40.1702" gradientUnits="userSpaceOnUse">
<stop stop-color="#10059F"/>
<stop offset="1" stop-color="#0038FF"/>
</linearGradient>
<linearGradient id="paint5_linear_0_23" x1="27.199" y1="24" x2="27.199" y2="40.1702" gradientUnits="userSpaceOnUse">
<stop stop-color="#10059F"/>
<stop offset="1" stop-color="#0038FF"/>
</linearGradient>
<clipPath id="clip0_0_23">
<rect width="40" height="16.1702" fill="white" transform="translate(12 24)"/>
</clipPath>
</defs>
</svg>
