<svg width="64" height="64" viewBox="0 0 64 64" fill="none" xmlns="http://www.w3.org/2000/svg">
<rect width="64" height="64" rx="15" fill="#FFB91D"/>
<path d="M27.5249 38.5167V37.1763C27.5249 36.8473 27.7956 36.5792 28.1277 36.5792H31.1911C31.5232 36.5792 31.797 36.8473 31.797 37.1763V38.5167C31.797 38.8456 31.5232 39.1168 31.1911 39.1168H28.1277C27.7956 39.1168 27.5249 38.8456 27.5249 38.5167Z" fill="url(#paint0_linear_0_5)"/>
<path d="M44.8632 46.6431C45.3092 46.8986 45.7766 47.0955 46.2601 47.2311C45.8679 47.6994 45.2742 48 44.6134 48H15.1331C13.9591 48 13 47.05 13 45.8901V41.3164C13 40.4942 13.4756 39.7491 14.2277 39.4006C14.2357 39.4006 14.2357 39.3952 14.2439 39.3952L17.1263 38.0728L24.1054 34.8878L27.5279 44.6181L27.6192 43.5033L27.9497 39.5362H31.3694L32.0384 43.5193L32.221 44.6183L32.6346 43.4342L35.6407 34.888L36.4708 35.2658V38.299C36.4708 40.494 37.6527 42.5242 39.5736 43.6204L39.8691 43.7906L44.8632 46.6429V46.6431Z" fill="url(#paint1_linear_0_5)"/>
<path d="M37.1294 21.951C37.0654 21.7491 36.9991 21.5487 36.922 21.3539V20.077C36.922 17.2847 34.6152 15 31.796 15H27.9515C25.1322 15 22.8253 17.2847 22.8253 20.0772V21.3541C22.7482 21.5489 22.6818 21.7491 22.6179 21.9512C21.6198 22.385 21.5437 23.6713 21.5437 25.0552C21.5437 26.513 21.6977 27.6255 22.7796 27.9976C23.9411 31.049 26.6792 33.1931 29.8735 33.1931C33.0678 33.1931 35.8062 31.049 36.9675 27.9976C38.0491 27.6257 38.2034 26.513 38.2034 25.0552C38.2034 23.5974 38.1273 22.385 37.1292 21.9512L37.1294 21.951ZM22.8253 26.0003C22.8253 26.0003 20.6894 25.154 22.8253 23.0385C22.8253 23.0385 21.5439 24.7309 22.8253 26.0003ZM36.827 26.0003C38.1085 24.7311 36.827 23.0385 36.827 23.0385C38.9629 25.154 36.827 26.0003 36.827 26.0003Z" fill="url(#paint2_linear_0_5)"/>
<path d="M54.5604 28.7128L50.4052 26.3359C48.8969 25.4718 47.0358 25.4718 45.5256 26.3359L41.3661 28.7128C39.8557 29.5747 38.9263 31.1713 38.9263 32.8972V37.6528C38.9263 39.379 39.8557 40.9754 41.3661 41.8373L41.5985 41.9711L45.5256 44.214C45.8763 44.4148 46.2437 44.5696 46.624 44.6763C46.9937 44.781 47.3761 44.8415 47.7584 44.8584C47.8365 44.8625 47.923 44.8625 48.0013 44.8625C48.8336 44.8562 49.6596 44.6387 50.4052 44.214L54.2011 42.0443L54.5602 41.8371C56.0706 40.975 57 39.3786 57 37.6526V32.897C57 31.1709 56.0704 29.5745 54.5602 28.7126L54.5604 28.7128ZM53.8992 32.6944L47.3527 40.0424L42.1836 35.8536C41.6153 35.3933 41.5308 34.5627 41.9956 33.9998C42.4604 33.437 43.299 33.3532 43.8673 33.8157L47.055 36.3977L51.9052 30.9536C52.3912 30.4075 53.2318 30.3551 53.7811 30.8364C54.3324 31.3177 54.3852 32.1503 53.8994 32.6944H53.8992Z" fill="url(#paint3_linear_0_5)"/>
<defs>
<linearGradient id="paint0_linear_0_5" x1="35" y1="15" x2="35" y2="48" gradientUnits="userSpaceOnUse">
<stop stop-color="#10059F"/>
<stop offset="1" stop-color="#0038FF"/>
</linearGradient>
<linearGradient id="paint1_linear_0_5" x1="35" y1="15" x2="35" y2="48" gradientUnits="userSpaceOnUse">
<stop stop-color="#10059F"/>
<stop offset="1" stop-color="#0038FF"/>
</linearGradient>
<linearGradient id="paint2_linear_0_5" x1="35" y1="15" x2="35" y2="48" gradientUnits="userSpaceOnUse">
<stop stop-color="#10059F"/>
<stop offset="1" stop-color="#0038FF"/>
</linearGradient>
<linearGradient id="paint3_linear_0_5" x1="35" y1="15" x2="35" y2="48" gradientUnits="userSpaceOnUse">
<stop stop-color="#10059F"/>
<stop offset="1" stop-color="#0038FF"/>
</linearGradient>
</defs>
</svg>
