<svg width="64" height="64" viewBox="0 0 64 64" fill="none" xmlns="http://www.w3.org/2000/svg">
<rect width="64" height="64" rx="15" fill="#FFB91D"/>
<path d="M52.2263 21.742L54 21.1255C53.9103 20.6071 53.7778 20.0847 53.5985 19.5663C53.4192 19.048 53.2048 18.5531 52.9553 18.0897L51.1815 18.7063C50.6436 17.7873 49.9419 17.0019 49.1272 16.3774L49.9458 14.6809C49.0726 14.0564 48.1019 13.5812 47.0728 13.2749L46.2541 14.9715C45.2601 14.7123 44.2153 14.6455 43.1667 14.7869L42.5547 13C42.0323 13.0903 41.5216 13.2239 41.0071 13.4045C40.4925 13.5852 40.0013 13.8012 39.5413 14.0525L40.1533 15.8394C39.2411 16.3853 38.4615 17.0922 37.8456 17.9091L36.1537 17.0843C35.5339 17.964 35.07 18.9419 34.7659 19.9748L36.45 20.7995C36.1927 21.801 36.1225 22.8535 36.2668 23.9099L34.4931 24.5265C34.5827 25.0449 34.7153 25.5672 34.8946 26.0856C35.0739 26.604 35.2883 27.0988 35.5378 27.5622L37.3115 26.9456C37.8495 27.8646 38.5512 28.6501 39.3659 29.2706L38.5473 30.9671C39.4205 31.5916 40.3911 32.0668 41.4203 32.3731L42.2389 30.6726C43.2252 30.9318 44.2738 31.0064 45.3224 30.8611L45.9345 32.648C46.449 32.5577 46.9675 32.4241 47.4821 32.2435C47.9967 32.0628 48.48 31.8468 48.9478 31.5955L48.3358 29.8086C49.248 29.2666 50.0277 28.5597 50.6514 27.7429L52.3354 28.5676C52.9553 27.6879 53.427 26.71 53.731 25.6732L52.047 24.8485C52.3043 23.847 52.3705 22.7945 52.2302 21.7381L52.2263 21.742ZM47.8641 27.6918V25.1509C47.8641 23.9845 47.1585 22.987 46.1528 22.5628C45.6343 22.9909 44.9716 23.2501 44.2465 23.2501C43.5214 23.2501 42.8587 22.9909 42.3403 22.5628C41.3345 22.987 40.6289 23.9845 40.6289 25.1509V27.6879C39.0891 26.5254 38.1262 24.6403 38.2159 22.5589C38.3601 19.205 41.1786 16.6013 44.5077 16.7466C47.8368 16.8919 50.4214 19.7313 50.2771 23.0852C50.1953 24.9781 49.2597 26.6315 47.8641 27.6879V27.6918Z" fill="url(#paint0_linear_0_26)"/>
<path d="M48.3007 41.5275C48.1253 40.6753 47.7862 39.8859 47.3262 39.1908L48.3982 38.0951C47.8875 37.3842 47.2599 36.7637 46.5465 36.2571L45.4745 37.3528C44.7767 36.8933 43.9892 36.5674 43.1394 36.3985L43.1277 34.859C42.7067 34.7923 42.274 34.7609 41.8296 34.7609C41.3852 34.7609 40.9525 34.8041 40.5315 34.8747L40.5432 36.4142C39.6972 36.5909 38.9137 36.9326 38.2237 37.4039L37.1361 36.3239C36.4305 36.8384 35.8146 37.4706 35.3117 38.1893L36.3993 39.2693C35.9432 39.9723 35.6197 40.7656 35.452 41.6217L33.9239 41.6335C33.8576 42.0616 33.8264 42.4936 33.8264 42.9413C33.8264 43.389 33.8693 43.8249 33.9395 44.2491L35.4676 44.2373C35.6469 45.0895 35.9861 45.8789 36.45 46.5701L35.378 47.6697C35.8886 48.3805 36.5163 48.9971 37.2296 49.5037L38.3017 48.408C38.9995 48.8675 39.7869 49.1974 40.6367 49.3623L40.6484 50.9018C41.0694 50.9686 41.5021 51 41.9465 51C42.3909 51 42.8237 50.9568 43.2447 50.8861L43.233 49.3466C44.0789 49.1699 44.8625 48.8282 45.5485 48.357L46.6362 49.437C47.3418 48.9225 47.9577 48.2902 48.4606 47.5715L47.3729 46.4915C47.829 45.7925 48.1565 44.9992 48.3202 44.147L49.8483 44.1352C49.9146 43.711 49.9458 43.2751 49.9458 42.8274C49.9458 42.3797 49.9029 41.9477 49.8327 41.5196L48.3046 41.5314L48.3007 41.5275ZM46.1489 44.5436C45.2367 46.9157 42.5859 48.0938 40.2313 47.1749C37.8768 46.2559 36.7073 43.5854 37.6195 41.2133C38.5317 38.8413 41.1825 37.6631 43.537 38.5821C45.8916 39.501 47.0611 42.1716 46.1489 44.5436Z" fill="url(#paint1_linear_0_26)"/>
<path d="M44.1919 40.4396L41.5879 44.3276L39.6193 42.3444C39.4672 42.1912 39.2178 42.1912 39.0657 42.3444C38.9137 42.4975 38.9137 42.7489 39.0657 42.902L41.3696 45.223C41.4437 45.2976 41.545 45.3369 41.6464 45.3369C41.6581 45.3369 41.6698 45.3369 41.6854 45.3369C41.8023 45.3251 41.9076 45.2623 41.9738 45.1641L44.843 40.8795C44.9638 40.6988 44.917 40.4554 44.7377 40.3297C44.5584 40.2079 44.3128 40.2551 44.1919 40.4357V40.4396Z" fill="url(#paint2_linear_0_26)"/>
<path d="M31.889 33.4884L34.1968 33.5081C34.3059 32.8679 34.3683 32.2081 34.3722 31.5327C34.3761 30.8572 34.3293 30.1935 34.228 29.5533L31.9202 29.5337C31.6746 28.2416 31.1795 27.0399 30.4895 25.9756L32.1346 24.3458C31.3744 23.258 30.4428 22.3036 29.3785 21.5221L27.7335 23.1519C26.6887 22.4411 25.5036 21.9266 24.225 21.6517L24.2445 19.3268C23.6013 19.2168 22.9542 19.154 22.2837 19.1501C21.6132 19.1461 20.9544 19.1933 20.3189 19.2954L20.2995 21.6203C19.0169 21.8756 17.8241 22.3743 16.7754 23.0616L15.1498 21.4043C14.07 22.1701 13.1305 23.1087 12.3548 24.1809L13.9726 25.8382C13.267 26.8907 12.7524 28.0845 12.4834 29.3727L10.1756 29.353C10.0665 29.9853 10.008 30.649 10.0002 31.3245C9.99633 32 10.0431 32.6637 10.1445 33.3038L12.4522 33.3235C12.6978 34.6155 13.1929 35.8173 13.8829 36.8737L12.2378 38.5035C12.998 39.5914 13.9297 40.5457 14.9939 41.3272L16.639 39.6974C17.6759 40.4082 18.861 40.9266 20.1396 41.1976L20.1201 43.5225C20.7556 43.6325 21.4105 43.6953 22.081 43.6993C22.7515 43.7032 23.4025 43.6561 24.0457 43.5539L24.0652 41.229C25.3477 40.9816 26.5406 40.4828 27.597 39.7956L29.2148 41.4529C30.2946 40.6871 31.2419 39.7484 32.0177 38.6763L30.3999 37.019C31.1055 35.9665 31.6161 34.7726 31.889 33.4845V33.4884ZM29.0745 34.2385C28.5638 35.5031 27.749 36.5477 26.7511 37.3293V34.5017C26.7511 33.0093 25.835 31.7369 24.5408 31.2146C23.9093 31.7683 23.0867 32.106 22.1862 32.106C21.2857 32.106 20.4632 31.7683 19.8317 31.2146C18.5374 31.7369 17.6213 33.0132 17.6213 34.5017V37.3293C15.0641 35.3224 14.0193 31.7879 15.298 28.6147C16.8417 24.7817 21.1727 22.9359 24.9774 24.4911C28.7821 26.0463 30.6143 30.4095 29.0706 34.2425L29.0745 34.2385Z" fill="url(#paint3_linear_0_26)"/>
<path d="M22.1862 25.6614C21.9913 25.6614 21.8042 25.6811 21.621 25.7203C21.3481 25.7753 21.0869 25.8735 20.8491 26.0031C20.5295 26.1759 20.2488 26.4115 20.0227 26.6904C19.8512 26.8985 19.7108 27.1341 19.6017 27.3894C19.4613 27.7272 19.3795 28.1002 19.3795 28.489C19.3795 28.8778 19.4574 29.2509 19.6017 29.5887C19.7069 29.8439 19.8512 30.0757 20.0227 30.2877C20.2527 30.5666 20.5333 30.8022 20.8491 30.975C20.892 30.9986 20.9388 31.0182 20.9855 31.0418C21.1844 31.136 21.3988 31.2146 21.621 31.2578C21.8042 31.297 21.9913 31.3167 22.1862 31.3167C22.615 31.3167 23.0204 31.2145 23.3869 31.0418C24.3342 30.5901 24.993 29.6162 24.993 28.489C24.993 26.9299 23.7377 25.6654 22.1862 25.6654V25.6614Z" fill="url(#paint4_linear_0_26)"/>
<path d="M44.2465 17.9837C43.0186 17.9837 42.0245 18.9851 42.0245 20.2222C42.0245 21.2983 42.7769 22.1937 43.7787 22.4097C43.9308 22.4411 44.0867 22.4607 44.2504 22.4607C44.4142 22.4607 44.5701 22.4411 44.7221 22.4097C45.724 22.1937 46.4763 21.2943 46.4763 20.2222C46.4763 18.9851 45.4823 17.9837 44.2543 17.9837H44.2465Z" fill="url(#paint5_linear_0_26)"/>
<defs>
<linearGradient id="paint0_linear_0_26" x1="32" y1="13" x2="32" y2="51" gradientUnits="userSpaceOnUse">
<stop stop-color="#10059F"/>
<stop offset="1" stop-color="#0038FF"/>
</linearGradient>
<linearGradient id="paint1_linear_0_26" x1="32" y1="13" x2="32" y2="51" gradientUnits="userSpaceOnUse">
<stop stop-color="#10059F"/>
<stop offset="1" stop-color="#0038FF"/>
</linearGradient>
<linearGradient id="paint2_linear_0_26" x1="32" y1="13" x2="32" y2="51" gradientUnits="userSpaceOnUse">
<stop stop-color="#10059F"/>
<stop offset="1" stop-color="#0038FF"/>
</linearGradient>
<linearGradient id="paint3_linear_0_26" x1="32" y1="13" x2="32" y2="51" gradientUnits="userSpaceOnUse">
<stop stop-color="#10059F"/>
<stop offset="1" stop-color="#0038FF"/>
</linearGradient>
<linearGradient id="paint4_linear_0_26" x1="32" y1="13" x2="32" y2="51" gradientUnits="userSpaceOnUse">
<stop stop-color="#10059F"/>
<stop offset="1" stop-color="#0038FF"/>
</linearGradient>
<linearGradient id="paint5_linear_0_26" x1="32" y1="13" x2="32" y2="51" gradientUnits="userSpaceOnUse">
<stop stop-color="#10059F"/>
<stop offset="1" stop-color="#0038FF"/>
</linearGradient>
</defs>
</svg>
