<svg width="40" height="40" viewBox="0 0 40 40" fill="none" xmlns="http://www.w3.org/2000/svg">
<rect width="40" height="40" rx="5" fill="#10059F"/>
<path d="M25.0769 19.5385C23.3185 19.5385 22.1923 20.4615 20.4615 20.4615C18.7308 20.4615 17.6046 19.5385 15.8462 19.5385C14.0877 19.5385 12.9015 20.4615 11.2308 20.4615C9.20923 20.4615 8 20.0185 8 20.0185V22.3262C8 22.3262 9.20923 22.7692 11.2308 22.7692C12.9015 22.7692 14.0877 21.8462 15.8462 21.8462C17.6046 21.8462 18.7308 22.7692 20.4615 22.7692C22.1923 22.7692 23.3185 21.8462 25.0769 21.8462C26.8354 21.8462 28.0215 22.7692 29.6923 22.7692C31.7138 22.7692 32.9231 22.3262 32.9231 22.3262V20.0185C32.9231 20.0185 31.7138 20.4615 29.6923 20.4615C28.0215 20.4615 26.8354 19.5385 25.0769 19.5385Z" fill="white"/>
<path d="M17.6138 13.3446C17.3692 13.8062 17.2308 14.3323 17.2308 14.8908C17.2308 16.6908 18.6754 18.1538 20.4615 18.1538C22.2477 18.1538 23.6923 16.6908 23.6923 14.8908C23.6923 14.3323 23.5538 13.8062 23.3092 13.3446L20.4615 8L17.6138 13.3446ZM20.9231 16.3077C20.9231 16.5615 20.7154 16.7692 20.4615 16.7692C19.4415 16.7692 18.6154 15.9246 18.6154 14.8908C18.6154 14.6369 18.8231 14.4292 19.0769 14.4292C19.3308 14.4292 19.5385 14.6369 19.5385 14.8908C19.5385 15.4169 19.9538 15.8462 20.4615 15.8462C20.7154 15.8462 20.9231 16.0538 20.9231 16.3077Z" fill="white"/>
<path d="M20.4615 29.6923C21.2277 29.6923 21.8462 28.9769 21.8462 28.0954C21.8462 27.8231 21.7862 27.5646 21.68 27.3385L20.4615 25.0769L19.2431 27.3385C19.1369 27.5646 19.0769 27.8231 19.0769 28.0954C19.0769 28.9769 19.6954 29.6923 20.4615 29.6923Z" fill="white"/>
<path d="M31.5385 25.0769L30.32 27.3385C30.2138 27.5646 30.1538 27.8231 30.1538 28.0954C30.1538 28.9769 30.7723 29.6923 31.5385 29.6923C32.3046 29.6923 32.9231 28.9769 32.9231 28.0954C32.9231 27.8231 32.8631 27.5646 32.7569 27.3385L31.5385 25.0769Z" fill="white"/>
<path d="M9.38462 25.0769L8.16615 27.3385C8.06 27.5646 8 27.8231 8 28.0954C8 28.9769 8.61846 29.6923 9.38462 29.6923C10.1508 29.6923 10.7692 28.9769 10.7692 28.0954C10.7692 27.8231 10.7092 27.5646 10.6031 27.3385L9.38462 25.0769Z" fill="white"/>
<path d="M26 27.3846L24.7815 29.6462C24.6754 29.8723 24.6154 30.1308 24.6154 30.4031C24.6154 31.2846 25.2338 32 26 32C26.7662 32 27.3846 31.2846 27.3846 30.4031C27.3846 30.1308 27.3246 29.8723 27.2185 29.6462L26 27.3846Z" fill="white"/>
<path d="M16.3077 30.4031C16.3077 30.1308 16.2477 29.8723 16.1415 29.6462L14.9231 27.3846L13.7046 29.6462C13.5985 29.8723 13.5385 30.1308 13.5385 30.4031C13.5385 31.2846 14.1569 32 14.9231 32C15.6892 32 16.3077 31.2846 16.3077 30.4031Z" fill="white"/>
<path d="M29.6923 9.84615C29.4385 9.84615 29.2308 10.0538 29.2308 10.3077V15.6569L28.1738 14.6C27.9938 14.42 27.7031 14.42 27.5231 14.6C27.3431 14.78 27.3431 15.0708 27.5231 15.2508L29.3692 17.0969C29.4154 17.1431 29.4662 17.1754 29.5215 17.1985C29.5769 17.2215 29.6369 17.2354 29.6969 17.2354C29.7569 17.2354 29.8169 17.2215 29.8723 17.1985C29.9277 17.1754 29.9785 17.1431 30.0246 17.0969L31.8708 15.2508C32.0508 15.0708 32.0508 14.78 31.8708 14.6C31.6908 14.42 31.4 14.42 31.22 14.6L30.1631 15.6569V10.3077C30.1631 10.0538 29.9554 9.84615 29.7015 9.84615H29.6923Z" fill="white"/>
<path d="M11.2308 9.84615C10.9769 9.84615 10.7692 10.0538 10.7692 10.3077V15.6569L9.71231 14.6C9.53231 14.42 9.24154 14.42 9.06154 14.6C8.88154 14.78 8.88154 15.0708 9.06154 15.2508L10.9077 17.0969C10.9538 17.1431 11.0046 17.1754 11.0554 17.1985C11.1108 17.2215 11.1708 17.2354 11.2308 17.2354C11.2908 17.2354 11.3508 17.2215 11.4062 17.1985C11.4615 17.1754 11.5123 17.1431 11.5538 17.0969L13.4 15.2508C13.58 15.0708 13.58 14.78 13.4 14.6C13.22 14.42 12.9292 14.42 12.7492 14.6L11.6923 15.6569V10.3077C11.6923 10.0538 11.4846 9.84615 11.2308 9.84615Z" fill="white"/>
</svg>
