<svg width="40" height="40" viewBox="0 0 40 40" fill="none" xmlns="http://www.w3.org/2000/svg">
<rect width="40" height="40" rx="5" fill="#10059F"/>
<path d="M19.6647 23.5556C21.6283 23.5556 23.2202 21.9637 23.2202 20C23.2202 18.0363 21.6283 16.4444 19.6647 16.4444C17.701 16.4444 16.1091 18.0363 16.1091 20C16.1091 21.9637 17.701 23.5556 19.6647 23.5556Z" fill="white"/>
<path d="M9.93578 16.9156C9.918 16.9467 9.89578 16.9733 9.88689 17.0089C9.58911 17.9689 9.44244 18.9733 9.44244 20C9.44244 21.0267 9.59356 22.0356 9.88689 22.9911C9.89578 23.0267 9.918 23.0578 9.93578 23.0844C9.01578 23.7422 8.718 24.9956 9.29578 25.9956C9.87356 27 11.118 27.3689 12.1447 26.8933C12.1624 26.9244 12.1758 26.96 12.2024 26.9867C13.6024 28.4756 15.3847 29.5022 17.3624 29.9556C17.398 29.9644 17.4291 29.9689 17.4602 29.9689C17.558 31.1067 18.5002 32 19.6647 32C20.8291 32 21.7713 31.1067 21.8691 29.9689C21.9002 29.9689 21.9358 29.9689 21.9669 29.9556C23.9402 29.5022 25.7269 28.4756 27.1269 26.9867C27.1536 26.96 27.1669 26.9244 27.1847 26.8933C28.2158 27.3689 29.4558 27 30.0336 25.9956C30.6113 24.9956 30.3136 23.7422 29.3936 23.0844C29.4113 23.0533 29.4291 23.0222 29.4424 22.9911C29.7402 22.0311 29.8869 21.0267 29.8869 20C29.8869 18.9733 29.7358 17.9644 29.4424 17.0089C29.4336 16.9733 29.4113 16.9467 29.3936 16.9156C30.318 16.2578 30.6158 15.0044 30.038 14C29.4602 12.9956 28.2202 12.6267 27.1891 13.1022C27.1713 13.0711 27.158 13.0356 27.1313 13.0089C25.7313 11.52 23.9491 10.4933 21.9713 10.04C21.9358 10.0311 21.9047 10.04 21.8736 10.04C21.7802 8.90222 20.8336 8 19.6691 8C18.5047 8 17.558 8.89778 17.4647 10.04C17.4291 10.04 17.398 10.0356 17.3669 10.04C15.3936 10.4933 13.6069 11.52 12.2069 13.0089C12.1802 13.0356 12.1669 13.0711 12.1491 13.1022C11.118 12.6267 9.878 12.9956 9.30022 14C8.72244 15 9.02022 16.2578 9.94467 16.9156H9.93578ZM13.1402 16.2222C13.638 15.36 13.4913 14.3067 12.8513 13.6133C14.1269 12.2578 15.7536 11.32 17.5491 10.9111C17.838 11.8 18.6691 12.4444 19.6558 12.4444C20.6424 12.4444 21.4736 11.8 21.7624 10.9111C23.558 11.3244 25.1847 12.2578 26.4602 13.6133C25.8202 14.3067 25.678 15.36 26.1713 16.2222C26.6691 17.0844 27.6558 17.4844 28.5802 17.2756C28.8469 18.1467 28.9847 19.0622 28.9847 20C28.9847 20.9378 28.8469 21.8533 28.5802 22.7244C27.6558 22.5156 26.6691 22.9156 26.1713 23.7778C25.6736 24.64 25.8202 25.6933 26.4602 26.3867C25.1847 27.7422 23.558 28.68 21.7624 29.0889C21.4736 28.2 20.6424 27.5556 19.6558 27.5556C18.6691 27.5556 17.838 28.2 17.5491 29.0889C15.7536 28.6756 14.1269 27.7422 12.8513 26.3867C13.4913 25.6933 13.6336 24.64 13.1402 23.7778C12.6424 22.9156 11.6558 22.5156 10.7313 22.7244C10.4647 21.8533 10.3269 20.9378 10.3269 20C10.3269 19.0622 10.4647 18.1467 10.7313 17.2756C11.6558 17.4844 12.6424 17.0844 13.1402 16.2222Z" fill="white"/>
</svg>
