<svg width="40" height="40" viewBox="0 0 40 40" fill="none" xmlns="http://www.w3.org/2000/svg">
<rect width="40" height="40" rx="5" fill="#10059F"/>
<g clip-path="url(#clip0_48_23)">
<path d="M12.7947 23.9121C14.019 22.0259 15.2247 20.1673 16.4614 18.2618C16.0821 17.8776 15.6558 17.4465 15.2295 17.016C15.1812 16.967 15.1245 16.9255 15.0789 16.8744C14.8834 16.654 14.7486 16.4108 14.9407 16.1296C15.1231 15.8615 15.4036 15.809 15.6752 15.9492C16.04 16.1378 16.3889 16.3617 16.7295 16.5925C16.9741 16.7583 17.1945 16.96 17.3762 17.1058C18.8016 15.648 20.2056 14.2122 21.6558 12.7288C21.0292 12.221 20.3603 11.6655 19.6756 11.13C19.3233 10.8543 18.9398 10.6173 18.5743 10.3576C18.2813 10.1496 18.1881 9.86286 18.3117 9.58372C18.4264 9.32462 18.7546 9.15811 19.0752 9.30251C19.8055 9.63139 20.5345 9.97617 21.2192 10.3886C21.8562 10.7728 22.4352 11.2544 23.055 11.7042C23.6754 11.2834 24.3145 10.8371 24.9667 10.4094C26.0812 9.67769 27.1991 8.95083 28.3246 8.23503C29.0259 7.78939 29.9753 8.00288 30.3587 8.66963C30.7719 9.38819 30.5232 10.2636 29.7887 10.6954C28.2528 11.5992 26.7189 12.505 25.1851 13.4121C25.0877 13.4695 25.0006 13.5441 24.8804 13.6305C25.4276 14.3062 25.9624 14.964 26.4951 15.6231C26.8557 16.0688 27.2344 16.502 27.5667 16.9683C27.783 17.2717 27.8797 17.6365 27.7913 18.0199C27.5888 18.9015 26.5628 19.2677 25.8663 18.6846C25.6162 18.4752 25.4027 18.2037 25.2286 17.926C24.5771 16.8861 23.9483 15.8311 23.2961 14.756C21.7484 15.9181 20.4198 17.2482 19.1326 18.6507C19.4891 19.0466 19.847 19.4156 20.171 19.8129C20.5842 20.3193 21.0126 20.8209 21.3553 21.3737C21.7222 21.9651 21.5467 22.6222 21.0278 22.9559C20.5275 23.2772 19.8767 23.1659 19.4746 22.6118C19.1878 22.2166 19.0047 21.7475 18.7629 21.3184C18.517 20.8817 18.2565 20.4541 17.9386 19.9144C16.6971 21.6362 15.5183 23.2723 14.3251 24.9271C15.0734 25.4536 15.776 25.929 16.4573 26.4326C17.01 26.8417 17.5614 27.259 18.0651 27.7254C18.2682 27.9133 18.3877 28.2277 18.4644 28.5068C18.5619 28.8612 18.5163 29.2281 18.2019 29.4845C17.806 29.8071 17.323 29.8555 16.9016 29.6372C16.507 29.4326 16.1561 29.1107 15.8438 28.7846C15.0824 27.9907 14.3541 27.1643 13.5596 26.2931C13.391 26.6019 13.259 26.8106 13.1574 27.0337C12.5287 28.4135 11.9069 29.7961 11.2816 31.1772C11.2007 31.3555 11.1254 31.5372 11.0266 31.7044C10.8912 31.9331 10.6832 32.0464 10.4138 31.9828C10.1429 31.9186 9.993 31.7217 9.99991 31.4577C10.0082 31.1385 10.0345 30.811 10.1181 30.505C10.5824 28.7928 11.2035 27.1367 11.9884 25.5462C12.1293 25.2601 12.1376 25.0902 11.864 24.8891C11.4757 24.6038 11.1213 24.2714 10.7503 23.9626C10.5623 23.8064 10.4124 23.6351 10.5243 23.3725C10.6404 23.1003 10.8974 23.0215 11.1296 23.1072C11.5994 23.2806 12.0478 23.5142 12.5024 23.729C12.613 23.7816 12.7111 23.8589 12.7954 23.9121H12.7947Z" fill="white"/>
</g>
<defs>
<clipPath id="clip0_48_23">
<rect width="20.5571" height="24" fill="white" transform="translate(10 8)"/>
</clipPath>
</defs>
</svg>
