<svg width="44" height="45" viewBox="0 0 44 45" fill="none" xmlns="http://www.w3.org/2000/svg">
<rect width="44" height="45" fill="#1E1E1E"/>
<g id="Desktop/Home page" clip-path="url(#clip0_0_1)">
<rect width="1440" height="3149" transform="translate(-452 -2374)" fill="#F2F9FF"/>
<g id="Group 27">
<rect id="Rectangle 39" x="-15.5" y="-9.44922" width="239" height="63" rx="19.5" stroke="#0468FB"/>
<g id="Layer_1" clip-path="url(#clip1_0_1)">
<g id="Group">
<path id="Vector" d="M11.978 43.9103C10.8173 43.9103 9.29083 43.8737 7.77422 43.5872C4.89997 43.0311 2.36338 41.0423 1.15206 38.399C0.524594 37.0928 0.212268 35.5802 0.141924 33.4973C0.140517 25.8611 0.140517 18.2305 0.141924 10.5999C0.167248 8.50577 0.63011 5.55633 2.68555 3.392C4.09946 1.80071 6.15772 0.712229 8.32853 0.410263C9.27817 0.261387 10.3277 0.191162 11.6305 0.191162C11.9906 0.191162 12.3817 0.19678 12.8615 0.206612L13.209 0.215039L12.815 0.578803L12.8052 0.585825C10.8961 1.83442 9.25706 3.57599 8.06685 5.62515C5.88338 9.37515 4.84089 14.0254 5.05192 19.0746C5.26435 23.2094 6.28012 26.8555 8.07107 29.9117C8.16111 30.076 8.26522 30.2319 8.37636 30.3948C8.66055 30.8162 8.95459 31.253 8.96162 31.8077C9.01649 33.1898 8.42138 34.6364 7.28322 35.8906L7.35638 35.9678C7.61524 35.9875 7.87973 35.9973 8.14141 35.9973C9.67913 35.9973 11.2787 35.6476 12.77 34.9861L12.8404 34.9552L12.9051 34.9973C15.9482 36.9777 19.7622 38.1757 24.2389 38.5605C25.0591 38.6223 25.8891 38.6546 26.7037 38.6546C29.9888 38.6546 33.1289 38.1532 36.0369 37.1631C39.1728 36.0718 41.6827 34.4917 43.4962 32.4678L43.8437 32.09L43.8535 32.4369C43.9239 35.135 43.5074 37.2642 42.5775 38.9482C41.3 41.2811 38.9871 43.0044 36.3915 43.5563C35.2336 43.7951 33.9744 43.906 32.4283 43.906C32.282 43.906 32.1357 43.9061 31.9893 43.9032C29.7412 43.9032 27.4902 43.9032 25.2406 43.9032H25.128C22.915 43.9032 20.702 43.9032 18.489 43.9032C18.2751 43.9004 18.0641 43.899 17.8531 43.899C17.5604 43.899 17.2692 43.9018 16.978 43.9032C16.6854 43.9061 16.3927 43.9075 16.1001 43.9075C15.5092 43.9075 15.0323 43.8962 14.6004 43.8737C14.3401 43.878 14.07 43.8836 13.7999 43.8878C13.2048 43.899 12.5885 43.9103 11.9822 43.9103H11.978Z" fill="#0068FF"/>
<path id="Vector_2" d="M11.6288 0.33168C12.0382 0.33168 12.449 0.338703 12.857 0.34713L12.7276 0.466512C10.758 1.75443 9.12458 3.52269 7.94421 5.55219C5.57785 9.61539 4.71543 14.4202 4.91099 19.0775C5.10514 22.8696 6.01679 26.6828 7.94984 29.9792C8.27342 30.569 8.81225 31.0901 8.82069 31.8064C8.88119 33.3429 8.12007 34.791 7.09024 35.8893C7.15777 35.9595 7.22389 36.0297 7.29142 36.0999C7.5742 36.1238 7.85839 36.1351 8.14117 36.1351C9.75345 36.1351 11.3545 35.7657 12.8261 35.1112C16.211 37.3134 20.2333 38.3542 24.2246 38.6969C25.0476 38.7601 25.8748 38.791 26.7007 38.791C29.8816 38.791 33.0654 38.3176 36.0803 37.2924C38.8983 36.312 41.5938 34.7966 43.5986 32.5578L43.7098 32.437C43.7675 34.6322 43.5297 36.923 42.4506 38.8766C41.1957 41.1688 38.9194 42.871 36.3589 43.416C35.0659 43.6828 33.7435 43.7629 32.4238 43.7629C32.2775 43.7629 32.1312 43.7629 31.9863 43.7601C27.4857 43.7601 22.9851 43.7601 18.4845 43.7601C18.2721 43.7572 18.061 43.7558 17.8486 43.7558C17.2648 43.7558 16.6795 43.7657 16.097 43.7657C15.599 43.7657 15.101 43.7586 14.6029 43.7334C13.7293 43.746 12.8528 43.7699 11.9763 43.7699C10.5765 43.7699 9.17663 43.7095 7.7993 43.4497C4.97852 42.9033 2.47428 40.9511 1.27844 38.3415C0.553899 36.8331 0.33724 35.1463 0.280965 33.4932C0.279558 25.8612 0.279558 18.2306 0.280965 10.5999C0.311916 8.04938 0.988623 5.38084 2.78661 3.48898C4.21177 1.88646 6.22782 0.844321 8.34798 0.549377C9.43268 0.378028 10.5315 0.33168 11.6302 0.33168M11.6302 0.0507812C10.3204 0.0507812 9.26386 0.121006 8.30437 0.272691C6.10824 0.578871 4.02044 1.6814 2.58121 3.29938C0.49481 5.49601 0.0263209 8.48056 -0.000409688 10.5971C-0.00181656 18.2306 -0.00181656 25.8612 -0.000409688 33.4932V33.503C0.092444 36.2292 0.628463 37.6393 1.0252 38.4637C2.2534 41.1435 4.82939 43.1617 7.74584 43.7263C9.27511 44.0143 10.81 44.0522 11.9777 44.0522C12.5855 44.0522 13.2031 44.041 13.7996 44.0297C14.0669 44.0241 14.3328 44.0199 14.5987 44.0157C15.032 44.0381 15.5076 44.048 16.097 44.048C16.3897 44.048 16.6823 44.0452 16.9749 44.0438C17.2662 44.041 17.5574 44.0396 17.8486 44.0396C18.0793 44.0396 18.2861 44.041 18.4803 44.0438C20.7355 44.0438 22.9851 44.0438 25.2361 44.0438C27.4871 44.0438 29.7367 44.0438 31.9877 44.0438C32.1312 44.0452 32.2789 44.0466 32.4252 44.0466C33.9826 44.0466 35.2502 43.9342 36.4165 43.694C39.053 43.1322 41.4011 41.3837 42.6982 39.0143C43.6394 37.3092 44.0629 35.1561 43.9911 32.4328L43.9729 31.739L43.503 32.2502L43.3918 32.371C41.5924 34.3808 39.1023 35.9469 35.9874 37.0297C33.0949 38.0143 29.9702 38.5129 26.7007 38.5129C25.8903 38.5129 25.0631 38.482 24.2457 38.4188C19.7943 38.0367 16.0028 36.8457 12.9794 34.878L12.8514 34.7952L12.7121 34.857C11.2391 35.5101 9.65919 35.8556 8.14117 35.8556C7.93296 35.8556 7.72474 35.8485 7.51793 35.8359C8.59419 34.5901 9.15553 33.1688 9.10207 31.8008C9.09363 31.2053 8.77427 30.732 8.49289 30.3148C8.38456 30.1533 8.28186 30.0016 8.19604 29.8457V29.8415L8.19182 29.8387C6.41072 26.8022 5.40199 23.1772 5.19096 19.0648C4.97993 14.0466 6.01539 9.42157 8.18619 5.69544C9.36656 3.66595 10.9901 1.93983 12.8809 0.703871L12.9006 0.691231L12.9175 0.675781L13.0469 0.556399L13.5576 0.0844891L12.8612 0.0690397C12.3801 0.0578037 11.9876 0.0535902 11.626 0.0535902L11.6302 0.0507812Z" fill="white"/>
</g>
<g id="Group_2">
<path id="Vector_3" d="M8.3484 0.549273C9.83828 0.314723 11.3535 0.313318 12.8588 0.347026L12.7294 0.466408C10.7598 1.75433 9.12641 3.52259 7.94604 5.55208C5.57968 9.61528 4.71726 14.4201 4.91282 19.0774C5.10697 22.8695 6.01862 26.6827 7.95167 29.9791C8.27525 30.5689 8.81408 31.09 8.82252 31.8063C8.88302 33.3428 8.1219 34.7908 7.09207 35.8892C7.1596 35.9594 7.22572 36.0296 7.29325 36.0998C8.25696 37.1504 9.28538 38.1378 10.2646 39.1743C11.656 40.7445 13.2415 42.1349 14.6048 43.7333C12.3369 43.767 10.0423 43.8723 7.80113 43.4496C4.98035 42.9032 2.47611 40.951 1.28027 38.3414C0.555727 36.833 0.339068 35.1462 0.282793 33.4931C0.281387 25.8611 0.281387 18.2305 0.282793 10.5998C0.313745 8.04927 0.990451 5.38073 2.78844 3.48888C4.21219 1.88635 6.22824 0.844217 8.3484 0.549273Z" fill="#0068FF"/>
<path id="Vector_4" d="M29.0041 14.5632H30.8162C30.8063 18.0927 30.8063 21.6236 30.8162 25.1531C30.2253 25.0703 29.2419 25.4481 29.0196 24.663C28.983 21.2978 29.0168 17.9298 29.0041 14.5632Z" fill="#0068FF"/>
<path id="Vector_5" d="M10.5403 14.6884C13.3484 14.6856 16.1537 14.6673 18.9605 14.687C18.9408 15.2361 18.9098 15.8345 18.5412 16.2783C16.6222 18.6631 14.7441 21.0788 12.8265 23.4637C14.865 23.4763 16.9036 23.4679 18.9422 23.4679C18.9042 23.944 19.0716 24.4988 18.7621 24.9117C18.5679 25.1786 18.2162 25.1547 17.925 25.1575C15.3743 25.1434 12.8237 25.1701 10.2744 25.1434C10.2814 24.6055 10.2871 24.01 10.6641 23.5816C12.5606 21.2066 14.4796 18.8485 16.3676 16.4679C14.4275 16.4707 12.486 16.4552 10.5459 16.4763C10.5333 15.8808 10.5375 15.2839 10.5403 14.6884Z" fill="#0068FF"/>
<path id="Vector_6" d="M35.3084 17.0253C37.3287 16.5745 39.5206 17.8989 40.0735 19.8849C40.7671 21.9509 39.5009 24.4073 37.4089 25.0365C35.632 25.6615 33.5048 24.8455 32.5833 23.2107C31.8602 22.0028 31.8165 20.4214 32.4736 19.1784C33.0307 18.0815 34.1069 17.2795 35.3084 17.0253ZM35.2746 18.8146C34.0422 19.2486 33.3782 20.7458 33.8593 21.9551C34.2575 23.0983 35.5982 23.7978 36.7631 23.4467C38.0926 23.1292 38.8959 21.5745 38.4246 20.3006C38.0307 19.0394 36.5043 18.3118 35.2746 18.8146Z" fill="#0068FF"/>
<path id="Vector_7" d="M20.342 18.4959C21.3141 17.2937 23.0164 16.701 24.5162 17.1293C25.0114 17.2543 25.4602 17.5015 25.8935 17.7642C25.8893 17.6321 25.8794 17.3695 25.8752 17.2375C26.4422 17.2347 27.0077 17.2361 27.5747 17.2333C27.5719 19.8737 27.5691 22.5142 27.5761 25.156C27.1597 25.1448 26.7362 25.1939 26.3268 25.1097C26.0398 24.9931 25.9512 24.6799 25.8372 24.4243C24.2728 25.6378 21.815 25.3625 20.515 23.8849C19.1292 22.4538 19.0575 20.0156 20.342 18.4959ZM22.6324 18.8498C21.3296 19.3077 20.6979 20.9833 21.3577 22.1911C21.9205 23.3681 23.5046 23.8625 24.6372 23.2136C25.6881 22.663 26.1735 21.2965 25.7219 20.2038C25.2843 19.0156 23.8085 18.3498 22.6324 18.8498Z" fill="#0068FF"/>
</g>
<g id="Group_3">
<path id="Vector_8" d="M12.7293 0.466432C13.0445 0.376544 13.3737 0.348455 13.7001 0.338623C19.3262 0.35969 24.9523 0.335814 30.5784 0.345646C32.0823 0.363904 33.5947 0.26278 35.0874 0.491713C37.1541 0.649016 39.1434 1.52261 40.6811 2.90323C42.6114 4.74452 43.6412 7.39621 43.6736 10.0409C43.675 17.4861 43.6707 24.9369 43.6778 32.3794C43.6581 32.4229 43.6201 32.5128 43.6004 32.5577C41.5956 34.7965 38.9 36.3119 36.0821 37.2923C32.2849 38.5844 28.2176 39.0001 24.2263 38.6968C20.235 38.3541 16.2128 37.3133 12.8278 35.1111C11.0974 35.8794 9.18825 36.2558 7.29319 36.0999C7.22566 36.0296 7.15953 35.9594 7.092 35.8892C8.12183 34.7909 8.88295 33.3428 8.82246 31.8063C8.81402 31.09 8.27518 30.569 7.9516 29.9791C6.01856 26.6827 5.1069 22.8695 4.91275 19.0774C4.7172 14.4201 5.57961 9.61531 7.94598 5.55211C9.12634 3.52261 10.7597 1.75435 12.7293 0.466432ZM29.0041 14.5633C29.0167 17.9299 28.983 21.2979 29.0195 24.6631C29.2418 25.4482 30.2252 25.0704 30.8161 25.1532C30.8063 21.6237 30.8063 18.0928 30.8161 14.5633H29.0041ZM10.5403 14.6883C10.5374 15.2838 10.5332 15.8808 10.5459 16.4763C12.486 16.4552 14.4274 16.4706 16.3675 16.4678C14.4795 18.8485 12.5605 21.2066 10.6641 23.5816C10.287 24.01 10.2814 24.6055 10.2744 25.1434C12.8236 25.1701 15.3743 25.1434 17.9249 25.1574C18.2162 25.1546 18.5679 25.1785 18.762 24.9117C19.0715 24.4987 18.9041 23.944 18.9421 23.4678C16.9035 23.4678 14.865 23.4763 12.8264 23.4636C14.744 21.0788 16.6222 18.6631 18.5411 16.2782C18.9097 15.8344 18.9407 15.2361 18.9604 14.6869C16.1537 14.6673 13.3484 14.6855 10.5403 14.6883ZM35.3083 17.0254C34.1068 17.2796 33.0305 18.0816 32.4734 19.1785C31.8164 20.4215 31.86 22.0029 32.5832 23.2108C33.5047 24.8456 35.6319 25.6617 37.4087 25.0367C39.5008 24.4074 40.7669 21.951 40.0734 19.885C39.5205 17.899 37.3285 16.5746 35.3083 17.0254ZM20.3419 18.4959C19.0575 20.0156 19.1292 22.4538 20.515 23.885C21.8149 25.3625 24.2728 25.6378 25.8372 24.4243C25.9512 24.6799 26.0398 24.9931 26.3268 25.1097C26.7362 25.194 27.1597 25.1448 27.5761 25.156C27.5691 22.5142 27.5719 19.8737 27.5747 17.2333C27.0077 17.2361 26.4422 17.2333 25.8752 17.2375C25.8794 17.3695 25.8893 17.6322 25.8935 17.7642C25.4602 17.5015 25.0114 17.2544 24.5161 17.1294C23.0164 16.701 21.3141 17.2937 20.3419 18.4959Z" fill="white"/>
<path id="Vector_9" d="M22.6324 18.85C23.8085 18.35 25.2843 19.0157 25.7219 20.2039C26.1735 21.2966 25.6881 22.6632 24.6372 23.2137C23.5047 23.8626 21.9205 23.3682 21.3578 22.1912C20.6979 20.9834 21.3296 19.3078 22.6324 18.85Z" fill="white"/>
<path id="Vector_10" d="M35.2744 18.8147C36.504 18.3119 38.0305 19.0394 38.4244 20.3006C38.8957 21.5745 38.0924 23.1293 36.7629 23.4467C35.598 23.7978 34.2572 23.0984 33.8591 21.9551C33.3779 20.7459 34.042 19.2487 35.2744 18.8147Z" fill="white"/>
</g>
<path id="Vector_11" d="M43.6004 32.5578L43.7116 32.437C43.7692 34.6322 43.5315 36.923 42.4524 38.8766C41.1975 41.1688 38.9212 42.871 36.3606 43.4159C34.9242 43.7123 33.4512 43.7783 31.9881 43.76C27.4875 43.7614 22.9869 43.76 18.4863 43.7615C17.192 43.7404 15.8948 43.8008 14.6047 43.7334C13.2415 42.135 11.6559 40.7446 10.2645 39.1744C9.28535 38.1379 8.25692 37.1505 7.29321 36.0999C9.18827 36.2558 11.0974 35.8794 12.8279 35.1112C16.2128 37.3134 20.2351 38.3541 24.2264 38.6968C28.2177 39.0002 32.2849 38.5845 36.0821 37.2923C38.9001 36.312 41.5956 34.7966 43.6004 32.5578Z" fill="#005BE0"/>
</g>
</g>
</g>
<defs>
<clipPath id="clip0_0_1">
<rect width="1440" height="3149" fill="white" transform="translate(-452 -2374)"/>
</clipPath>
<clipPath id="clip1_0_1">
<rect width="44" height="44" fill="white" transform="translate(0 0.0507812)"/>
</clipPath>
</defs>
</svg>
