<svg width="44" height="45" viewBox="0 0 44 45" fill="none" xmlns="http://www.w3.org/2000/svg">
<path d="M0.5 22.0508C0.5 10.1745 10.1237 0.550781 22 0.550781C33.8717 0.550781 43.5 10.1745 43.5 22.0508C43.5 33.9271 33.8763 43.5508 22 43.5508C10.1237 43.5508 0.5 33.9271 0.5 22.0508Z" fill="white" stroke="#0068FF"/>
<mask id="mask0_1_4" style="mask-type:luminance" maskUnits="userSpaceOnUse" x="0" y="0" width="44" height="45">
<path d="M22 0.0507812C9.84753 0.0507812 0 9.89831 0 22.0508C0 34.2033 9.84753 44.0508 22 44.0508C34.1525 44.0508 44 34.2033 44 22.0508C44 9.89831 34.1478 0.0507812 22 0.0507812Z" fill="white"/>
</mask>
<g mask="url(#mask0_1_4)">
<path d="M25.2325 27.9162C25.1201 27.5742 24.8671 27.2931 24.5158 27.1245C24.1503 26.9418 23.724 26.909 23.3539 27.0354L20.9974 27.8319L20.6882 27.3868C20.0089 26.403 19.0813 25.0538 18.3974 23.0252C17.7087 20.992 17.6337 19.3523 17.5822 18.153L17.5541 17.6236L19.9152 16.8272C20.6976 16.5602 21.1286 15.7356 20.8756 14.986L19.4046 10.6245C19.2875 10.2872 19.0345 10.0061 18.6878 9.83272C18.3224 9.65001 17.9008 9.62191 17.526 9.74371L16.4532 10.1091L16.3313 10.1888C15.8957 10.3996 15.4881 10.676 15.118 11.0133C14.7666 11.3366 14.4855 11.6692 14.2513 12.0252C12.3258 14.9626 12.3445 18.5465 14.3122 24.3932C16.6452 31.3221 20.3416 33.6036 21.4144 34.1377C21.5971 34.2267 21.7142 34.2735 21.747 34.2876C22.1687 34.4375 22.595 34.5265 23.0541 34.5687C23.546 34.6108 24.0379 34.5874 24.5111 34.489L24.7359 34.4422L25.7338 34.1189C26.5115 33.8566 26.9425 33.032 26.6895 32.2825L25.2185 27.9209L25.2325 27.9162Z" fill="#10059F"/>
<path d="M24.1316 21.0061C23.9067 20.2518 23.4851 19.5631 22.9042 19.0244L22.5388 18.6824L22.1874 19.0337C22.0984 19.1228 22.0094 19.1977 21.925 19.2633L21.4285 19.6287L21.8829 20.0504C22.2858 20.4251 22.5856 20.8936 22.7402 21.4136C22.8901 21.9102 22.9042 22.4443 22.7917 22.955L22.7074 23.3204L23.2462 23.653C23.2883 23.6858 23.3352 23.7139 23.3773 23.742L23.9676 24.1402L24.155 23.4515C24.3705 22.6458 24.3658 21.7978 24.1269 21.0014L24.1316 21.0061Z" fill="#10059F"/>
<path d="M26.4881 20.308C26.0758 18.9213 25.2466 17.7126 24.0894 16.8131L23.5319 16.3774L23.293 17.0427C23.2415 17.1879 23.1899 17.3238 23.1384 17.4503L23.0026 17.7923L23.293 18.0312C24.1644 18.7339 24.7875 19.6615 25.1014 20.7109C25.4621 21.9196 25.4012 23.1845 24.9187 24.3604L24.7687 24.7258L25.1997 25.0491H25.2091C25.2606 25.0866 25.3122 25.1147 25.3778 25.1521L25.9915 25.5129L26.221 24.9741C26.8535 23.4656 26.9472 21.854 26.4881 20.3033V20.308Z" fill="#10059F"/>
<path d="M29.0413 19.5444C28.3714 17.2863 26.891 15.3561 24.8765 14.1147L24.3284 13.7727L24.1222 14.377C24.0754 14.5176 24.0285 14.6581 23.9817 14.8174L23.8693 15.1922L24.1972 15.3983C25.865 16.4571 27.0924 18.078 27.6546 19.9613C28.2027 21.8165 28.0716 23.8217 27.2704 25.6113L27.0643 26.0704L27.5187 26.2812C27.5984 26.3187 27.678 26.3515 27.7858 26.3983L28.3901 26.6653L28.6009 26.2015C29.5379 24.0981 29.6972 21.7369 29.046 19.5491L29.0413 19.5444Z" fill="#10059F"/>
<path d="M31.0605 27.2463C32.2411 24.5806 32.4331 21.5729 31.6039 18.7855C30.7185 15.8106 28.7555 13.2995 26.0758 11.716L25.6542 11.463L25.3825 11.8847C25.3309 11.969 25.2794 12.0533 25.2325 12.1377L24.8952 12.7045L25.3403 12.9622C27.7061 14.3583 29.4395 16.5742 30.2219 19.2024C30.9527 21.6619 30.7841 24.3089 29.744 26.6653L29.5332 27.1432L30.0158 27.3446C30.1235 27.3868 30.2313 27.4383 30.3437 27.4852L30.859 27.7148L31.0652 27.2463H31.0605Z" fill="#10059F"/>
<path d="M25.2325 27.9162C25.1201 27.5742 24.8671 27.2931 24.5158 27.1245C24.1503 26.9418 23.724 26.909 23.3539 27.0354L20.9974 27.8319L20.6882 27.3868C20.0089 26.403 19.0813 25.0538 18.3974 23.0252C17.7087 20.992 17.6337 19.3523 17.5822 18.153L17.5541 17.6236L19.9152 16.8272C20.6976 16.5602 21.1286 15.7356 20.8756 14.986L19.4046 10.6245C19.2875 10.2872 19.0345 10.0061 18.6878 9.83272C18.3224 9.65001 17.9008 9.62191 17.526 9.74371L16.4532 10.1091L16.3313 10.1888C15.8957 10.3996 15.4881 10.676 15.118 11.0133C14.7666 11.3366 14.4855 11.6692 14.2513 12.0252C12.3258 14.9626 12.3445 18.5465 14.3122 24.3932C16.6452 31.3221 20.3416 33.6036 21.4144 34.1377C21.5971 34.2267 21.7142 34.2735 21.747 34.2876C22.1687 34.4375 22.595 34.5265 23.0541 34.5687C23.546 34.6108 24.0379 34.5874 24.5111 34.489L24.7359 34.4422L25.7338 34.1189C26.5115 33.8566 26.9425 33.032 26.6895 32.2825L25.2185 27.9209L25.2325 27.9162Z" fill="#10059F"/>
<path d="M24.1316 21.0061C23.9067 20.2518 23.4851 19.5631 22.9042 19.0244L22.5388 18.6824L22.1874 19.0337C22.0984 19.1228 22.0094 19.1977 21.925 19.2633L21.4285 19.6287L21.8829 20.0504C22.2858 20.4251 22.5856 20.8936 22.7402 21.4136C22.8901 21.9102 22.9042 22.4443 22.7917 22.955L22.7074 23.3204L23.2462 23.653C23.2883 23.6858 23.3352 23.7139 23.3773 23.742L23.9676 24.1402L24.155 23.4515C24.3705 22.6458 24.3658 21.7978 24.1269 21.0014L24.1316 21.0061Z" fill="#10059F"/>
<path d="M26.4881 20.308C26.0758 18.9213 25.2466 17.7126 24.0894 16.8131L23.5319 16.3774L23.293 17.0427C23.2415 17.1879 23.1899 17.3238 23.1384 17.4503L23.0026 17.7923L23.293 18.0312C24.1644 18.7339 24.7875 19.6615 25.1014 20.7109C25.4621 21.9196 25.4012 23.1845 24.9187 24.3604L24.7687 24.7258L25.1997 25.0491H25.2091C25.2606 25.0866 25.3122 25.1147 25.3778 25.1521L25.9915 25.5129L26.221 24.9741C26.8535 23.4656 26.9472 21.854 26.4881 20.3033V20.308Z" fill="#10059F"/>
<path d="M29.0413 19.5444C28.3714 17.2863 26.891 15.3561 24.8765 14.1147L24.3284 13.7727L24.1222 14.377C24.0754 14.5176 24.0285 14.6581 23.9817 14.8174L23.8693 15.1922L24.1972 15.3983C25.865 16.4571 27.0924 18.078 27.6546 19.9613C28.2027 21.8165 28.0716 23.8217 27.2704 25.6113L27.0643 26.0704L27.5187 26.2812C27.5984 26.3187 27.678 26.3515 27.7858 26.3983L28.3901 26.6653L28.6009 26.2015C29.5379 24.0981 29.6972 21.7369 29.046 19.5491L29.0413 19.5444Z" fill="#10059F"/>
<path d="M31.0605 27.2463C32.2411 24.5806 32.4331 21.5729 31.6039 18.7855C30.7185 15.8106 28.7555 13.2995 26.0758 11.716L25.6542 11.463L25.3825 11.8847C25.3309 11.969 25.2794 12.0533 25.2325 12.1377L24.8952 12.7045L25.3403 12.9622C27.7061 14.3583 29.4395 16.5742 30.2219 19.2024C30.9527 21.6619 30.7841 24.3089 29.744 26.6653L29.5332 27.1432L30.0158 27.3446C30.1235 27.3868 30.2313 27.4383 30.3437 27.4852L30.859 27.7148L31.0652 27.2463H31.0605Z" fill="#10059F"/>
</g>
</svg>
